<svg id="Capa_1" enable-background="new 0 0 512 512" height="512" viewBox="0 0 512 512" width="512" xmlns="http://www.w3.org/2000/svg"><g><path d="m341.657 329.343c-10.232-6.29-13.427-19.685-7.136-29.916 6.291-10.232 19.686-13.426 29.916-7.136 17.858 10.979 42.277 10.351 63.726-1.641 25.261-14.122 40.342-40.347 40.342-70.15 0-23.767-19.336-43.103-43.103-43.103s-43.103 19.336-43.103 43.103c0 12.011-9.737 21.747-21.747 21.747-12.011 0-21.747-9.737-21.747-21.747 0-47.75 38.848-86.598 86.598-86.598s86.598 38.848 86.598 86.598c0 45.779-23.407 86.197-62.612 108.115-33.547 18.753-75.046 20.824-107.732.728z" fill="#daa985"/><g fill="#cb8a5a"><path d="m388.209 343.45c7.232-15.136 13.378-29.904 18.542-44.748-15.14 3.126-30.229 1.019-42.314-6.411-10.23-6.29-23.625-3.096-29.916 7.136-6.291 10.231-3.096 23.625 7.136 29.916 14.298 8.791 30.283 13.34 46.552 14.107z"/><path d="m338.804 220.5c0 12.011 9.737 21.747 21.747 21.747 12.011 0 21.747-9.737 21.747-21.747 0-23.767 19.336-43.103 43.103-43.103 1.159 0 2.303.059 3.438.15.322-6.487.558-13.121.703-19.943.178-8.384-1.758-16.467-5.559-23.666-47.095.762-85.179 39.287-85.179 86.562z"/></g><path d="m398.645 156.948c-1.581 74.417-13.472 123.92-42.68 182.092-14.987 29.849-45.529 48.707-78.93 48.707h-137.454c-33.401 0-63.942-18.857-78.93-48.707-29.208-58.172-41.1-107.675-42.68-182.092-.21-9.904 7.744-18.062 17.65-18.062h345.373c9.906 0 17.861 8.158 17.651 18.062z" fill="#fbebcf"/><path d="m35.621 138.886c-9.906 0-17.861 8.158-17.651 18.062 1.581 74.417 13.472 123.92 42.68 182.092 14.987 29.849 45.529 48.707 78.93 48.707h38.494c-67.178-38.671-72.047-188.015-66.644-248.861z" fill="#f8d4a5"/><path d="m380.994 138.886h-345.373c-9.906 0-17.861 8.158-17.651 18.062.529 24.928 2.223 47.052 5.33 67.651h370.014c3.107-20.599 4.801-42.723 5.33-67.651.211-9.904-7.744-18.062-17.65-18.062z" fill="#a0e7d7"/><path d="m164.177 97.142c-12.501-12.501-34.014-7.068-38.749 9.965-8.111 29.177 1.284 64.278 27.026 90.02s60.844 35.137 90.02 27.026c17.033-4.735 22.466-26.249 9.965-38.749z" fill="#cb8a5a"/><path d="m164.177 97.142c-12.501-12.501-7.068-34.014 9.965-38.749 29.177-8.111 64.278 1.284 90.02 27.026s35.137 60.844 27.026 90.02c-4.735 17.033-26.249 22.466-38.749 9.965z" fill="#daa985"/><path d="m351.038 456.44h-285.461c-20.328 0-39.251-10.373-50.185-27.509l-12.013-18.826c-9.05-14.183 1.137-32.766 17.961-32.766h373.934c16.824 0 27.011 18.584 17.961 32.766l-12.013 18.826c-10.934 17.137-29.856 27.509-50.184 27.509z" fill="#a0e7d7"/><path d="m21.34 377.338c-16.824 0-27.011 18.584-17.961 32.766l12.013 18.827c10.934 17.137 29.857 27.509 50.185 27.509h112.747c-21.602-13.822-35.177-55.101-33.24-79.102z" fill="#6ad7be"/><path d="m35.621 138.886c-9.906 0-17.861 8.158-17.651 18.062.529 24.928 2.223 47.052 5.33 67.651h88.29c-2.655-33.62-2.011-64.863-.16-85.713z" fill="#6ad7be"/><g><g><ellipse cx="126.259" cy="322.975" fill="#eda1ab" rx="30.274" ry="24.109"/><ellipse cx="290.356" cy="322.975" fill="#eda1ab" rx="30.274" ry="24.109"/><path d="m232.716 304.451c0-15.085-10.928-16.502-24.409-16.502-13.48 0-24.409 1.417-24.409 16.502s10.928 27.313 24.409 27.313 24.409-12.229 24.409-27.313z" fill="#565e75"/></g><g fill="#565e75"><path d="m131.32 301.691c-4.142 0-7.5-3.358-7.5-7.5v-12.362c0-4.142 3.358-7.5 7.5-7.5s7.5 3.358 7.5 7.5v12.362c0 4.142-3.358 7.5-7.5 7.5z"/><path d="m285.295 301.691c-4.142 0-7.5-3.358-7.5-7.5v-12.362c0-4.142 3.358-7.5 7.5-7.5s7.5 3.358 7.5 7.5v12.362c0 4.142-3.358 7.5-7.5 7.5z"/></g></g></g></svg>