<svg id="Capa_1" enable-background="new 0 0 512 512" height="512" viewBox="0 0 512 512" width="512" xmlns="http://www.w3.org/2000/svg"><g><path d="m286.562 190.436-122.254-77.485c-51.828-32.848-120.582-9.674-142.298 47.715-16.696 44.121-26.771 93.742-19.744 141.206 5.544 37.446 60.587 34.049 61.674-3.789 1.037-36.117 7.511-74.647 24.958-109.538 7.091-14.179 25.479-18.195 37.911-8.357l88.807 70.277z" fill="#565e75"/><path d="m215.616 250.464 70.946-60.028-111.571-70.714c-1.246 1.164-2.469 2.357-3.639 3.609-15.376 16.468-30.285 35.588-44.427 56.947z" fill="#404656"/><path d="m421.182 481.338c14.677 0 29.101-4.292 41.144-12.68 28.765-20.035 49.674-50.283 49.674-100.302 0-61.906-58.811-163.176-103.471-207.837h-187.847c-44.661 44.661-103.471 145.931-103.471 207.837 0 50.019 20.909 80.268 49.673 100.301 12.043 8.388 26.468 12.68 41.144 12.68h213.154z" fill="#bae7ff"/><path d="m268.389 160.519h-47.707c-44.661 44.661-103.471 145.931-103.471 207.837 0 50.019 20.909 80.268 49.673 100.301 12.043 8.388 26.468 12.681 41.144 12.681h81.586c-78.761-52.973-80.311-196.067-21.225-320.819z" fill="#8cd6fe"/><path d="m328.245 326.899c-56.273-27.136-139.339-41.014-196.04-25.159-9.254 24.096-14.994 47.277-14.994 66.616 0 50.019 20.909 80.267 49.673 100.301 12.043 8.388 26.468 12.68 41.144 12.68h213.154c14.677 0 29.101-4.292 41.144-12.68 28.765-20.034 49.674-50.282 49.674-100.301 0-15.881-3.889-34.359-10.398-53.801 10.459 42.618-116.442 39.79-173.357 12.344z" fill="#daa985"/><path d="m483.071 207.511c-19.027-30.252-36.308-50.729-47.793-63.058-8.563-9.193-20.567-14.387-33.13-14.387h-175.102c-12.55 0-24.539 5.186-33.104 14.359-11.464 12.278-28.714 32.686-47.816 63.091-7.717 12.283 1.178 28.261 15.684 28.261h305.58c14.508-.002 23.405-15.986 15.681-28.266z" fill="#565e75"/><path d="m393.674 130.065c8.328-18.474 18.192-46.648 24.627-75.921 3.002-13.659-9.105-25.849-22.814-23.087-45.985 9.265-110.202 26.309-155.867 43.04-8.129 2.978-13.326 11.003-12.644 19.634 1.202 15.211 4.47 28.664 7.299 36.335h159.399z" fill="#404656"/><path d="m500.097 310.143c20.51 47.194-113.039 45.117-171.852 16.756 51.054-36.425 151.342-63.951 171.852-16.756z" fill="#cb8a5a"/><path d="m228.846 297.998c-34.375-4.652-68.708-4.069-96.642 3.742-9.254 24.096-14.994 47.277-14.994 66.616 0 50.019 20.909 80.268 49.673 100.302 12.043 8.388 26.468 12.68 41.144 12.68h81.586c-50.262-33.807-69.087-104.311-60.767-183.34z" fill="#cb8a5a"/><g><g><ellipse cx="228.083" cy="443.739" fill="#fbebcf" rx="31.925" ry="25.423"/><ellipse cx="401.128" cy="443.739" fill="#fbebcf" rx="31.925" ry="25.423"/><g fill="#fff"><ellipse cx="394.903" cy="398.097" rx="32.156" ry="32.156" transform="matrix(.707 -.707 .707 .707 -165.832 395.839)"/><ellipse cx="234.307" cy="398.097" rx="32.156" ry="32.156" transform="matrix(.707 -.707 .707 .707 -212.87 282.28)"/></g></g><g fill="#565e75"><path d="m394.903 416.192c-4.142 0-7.5-3.358-7.5-7.5v-21.215c0-4.142 3.358-7.5 7.5-7.5s7.5 3.358 7.5 7.5v21.215c0 4.143-3.358 7.5-7.5 7.5z"/><path d="m234.307 416.192c-4.142 0-7.5-3.358-7.5-7.5v-21.215c0-4.142 3.358-7.5 7.5-7.5s7.5 3.358 7.5 7.5v21.215c0 4.143-3.358 7.5-7.5 7.5z"/><path d="m314.605 438.103c-15.032 0-29.328-6.512-39.223-17.865-2.721-3.123-2.396-7.86.727-10.582 3.123-2.721 7.86-2.396 10.582.727 7.045 8.085 17.22 12.721 27.915 12.721s20.869-4.636 27.914-12.721c2.722-3.123 7.459-3.448 10.582-.727 3.122 2.722 3.448 7.459.727 10.582-9.896 11.353-24.192 17.865-39.224 17.865z"/></g></g></g></svg>