<?xml version="1.0" encoding="iso-8859-1"?>
<!-- Generator: Adobe Illustrator 19.0.0, SVG Export Plug-In . SVG Version: 6.00 Build 0)  -->
<svg version="1.1" id="Capa_1" xmlns="http://www.w3.org/2000/svg" xmlns:xlink="http://www.w3.org/1999/xlink" x="0px" y="0px"
	 viewBox="0 0 441.469 441.469" style="enable-background:new 0 0 441.469 441.469;" xml:space="preserve">
<g>
	<g>
		<path style="fill:#F96262;" d="M244.763,0h-63.216c-8.359,0-15.151,6.792-15.151,15.151s6.792,15.151,15.151,15.151h63.216
			c8.359,0,15.151-6.792,15.151-15.151S253.122,0,244.763,0z"/>
	</g>
</g>
<g>
	<g>
		<path style="fill:#F96262;" d="M413.514,99.788l-41.273-41.273c-5.747-5.747-15.151-5.747-21.42,0c-5.747,5.747-5.747,15.151,0,21.42l40.751,40.751
			c3.135,3.135,6.792,4.18,10.449,4.18c3.657,0,7.837-1.567,10.449-4.18C419.261,114.939,419.261,105.535,413.514,99.788z"/>
	</g>
</g>
<g>
	<g>
		<path style="fill:#F96262;" d="M212.894,63.216c-104.49,0-189.127,84.637-189.127,189.127s84.637,189.127,189.127,189.127S402.02,356.833,402.02,252.343
			S317.384,63.216,212.894,63.216z M291.261,272.718h-78.367c-8.359,0-15.151-6.792-15.151-15.151v-98.22
			c0-8.359,6.792-15.151,15.151-15.151s15.151,6.792,15.151,15.151v83.592h63.216c8.359,0,15.151,6.792,15.151,15.151
			C306.412,265.927,299.62,272.718,291.261,272.718z"/>
	</g>
</g>
<g>
</g>
<g>
</g>
<g>
</g>
<g>
</g>
<g>
</g>
<g>
</g>
<g>
</g>
<g>
</g>
<g>
</g>
<g>
</g>
<g>
</g>
<g>
</g>
<g>
</g>
<g>
</g>
<g>
</g>
</svg>
