<?xml version="1.0" standalone="no"?>
<!DOCTYPE svg PUBLIC "-//W3C//DTD SVG 20010904//EN"
 "http://www.w3.org/TR/2001/REC-SVG-20010904/DTD/svg10.dtd">
<svg version="1.0" xmlns="http://www.w3.org/2000/svg"
 width="441.000000pt" height="441.000000pt" viewBox="0 0 441.000000 441.000000"
 preserveAspectRatio="xMidYMid meet">
<metadata>
Created by potrace 1.11, written by Peter Selinger 2001-2013
</metadata>
<g transform="translate(0.000000,441.000000) scale(0.100000,-0.100000)"
fill="#000000" stroke="none">
<path d="M1744 4391 c-72 -44 -99 -120 -68 -188 23 -49 60 -81 104 -90 34 -6
672 -7 700 0 27 6 65 30 80 51 44 60 45 129 3 185 -46 60 -56 61 -440 61 -323
0 -350 -1 -379 -19z"/>
<path d="M3540 3848 c-62 -31 -89 -97 -69 -171 9 -36 45 -76 236 -268 239
-241 259 -255 336 -242 23 3 53 20 78 42 34 30 42 44 46 83 4 32 0 58 -10 80
-20 41 -441 460 -483 482 -39 19 -87 17 -134 -6z"/>
<path d="M1903 3764 c-422 -51 -795 -231 -1097 -527 -112 -110 -179 -191 -258
-310 -411 -626 -412 -1448 -1 -2072 236 -358 577 -621 983 -758 202 -68 357
-92 595 -92 180 0 241 6 414 40 215 42 516 180 716 330 342 255 591 625 699
1037 13 51 27 116 32 143 4 28 9 57 10 65 24 143 23 378 -3 550 -48 322 -176
621 -376 880 -73 94 -204 230 -274 285 -15 11 -40 32 -57 46 -114 97 -381 241
-551 297 -127 42 -256 72 -380 88 -91 12 -348 11 -452 -2z m306 -822 c14 -10
34 -31 45 -46 20 -27 21 -40 23 -464 1 -240 2 -439 2 -443 1 -3 146 -5 324 -5
230 -1 333 -4 360 -13 82 -28 123 -140 75 -211 -13 -19 -41 -44 -63 -55 -38
-19 -58 -20 -460 -19 -277 1 -429 5 -447 12 -32 13 -66 48 -81 82 -7 16 -11
202 -12 540 -2 462 0 519 15 555 28 66 79 97 150 90 25 -3 56 -13 69 -23z"/>
</g>
</svg>
